<svg width="369" height="322" viewBox="0 0 369 322" fill="none" xmlns="http://www.w3.org/2000/svg">
<path d="M270.625 0.000793457H97.7074C93.6888 0.000793457 89.9753 2.1446 87.966 5.62505L1.5072 155.376C-0.502076 158.856 -0.502076 163.144 1.5072 166.624L87.966 316.376C89.9753 319.856 93.6888 322 97.7074 322H270.625C274.643 322 278.357 319.856 280.366 316.376L366.825 166.624C368.834 163.144 368.834 158.856 366.825 155.376L280.366 5.62505C278.357 2.1446 274.643 0.000793457 270.625 0.000793457Z" fill="#FFD45D"/>
<path d="M368.332 161H294.609L239.387 256.646L276.249 320.492C277.931 319.521 279.362 318.115 280.366 316.375L366.825 166.624C367.83 164.884 368.332 162.942 368.332 161Z" fill="#007362"/>
<path d="M239.387 256.646H128.945L92.083 320.492C93.765 321.463 95.698 321.999 97.7073 321.999H270.625C272.634 321.999 274.567 321.463 276.249 320.492L239.387 256.646Z" fill="#00984C"/>
<path d="M128.945 256.646L73.7233 161H0C0 162.942 0.50214 164.884 1.50714 166.624L87.9659 316.376C88.9709 318.116 90.4011 319.522 92.083 320.493L128.945 256.646Z" fill="#41A93D"/>
<path d="M128.945 65.3538L92.083 1.50714C90.4011 2.47833 88.9702 3.88403 87.9659 5.62426L1.50714 155.376C0.50214 157.116 0 159.058 0 161H73.7233L128.945 65.3538Z" fill="#7DB82F"/>
<path d="M128.945 65.3538H239.387L276.249 1.50714C274.567 0.535953 272.634 0 270.625 0H97.7073C95.698 0 93.765 0.535953 92.083 1.50714L128.945 65.3538Z" fill="#41A93D"/>
<path d="M239.387 65.3538L294.609 161H368.332C368.332 159.058 367.83 157.116 366.825 155.376L280.366 5.62426C279.362 3.88403 277.931 2.47833 276.249 1.50714L239.387 65.3538Z" fill="#00984C"/>
<path d="M239.388 65.3538H128.944L73.7231 161L128.944 256.646H239.388L294.609 161L239.388 65.3538Z" fill="#008658"/>
<path d="M130.935 58.6569L137.975 53.3988C139.577 52.2025 141.696 53.9894 140.788 55.7707L136.795 63.5977C136.369 64.4344 136.621 65.4567 137.388 65.9984L144.564 71.0687C146.197 72.2226 145.152 74.7909 143.178 74.4765L134.5 73.0974C133.572 72.9499 132.677 73.506 132.399 74.4031L129.794 82.7949C129.201 84.7042 126.436 84.5042 126.124 82.5294L124.754 73.8506C124.607 72.9233 123.802 72.2442 122.863 72.2564L114.077 72.3722C112.078 72.3989 111.413 69.7069 113.195 68.8004L121.026 64.815C121.863 64.3891 122.26 63.4136 121.958 62.5244L119.132 54.2046C118.489 52.3111 120.844 50.8478 122.258 52.2622L128.467 58.4785C129.132 59.1425 130.182 59.2188 130.935 58.6569Z" fill="white"/>
</svg>
